<?xml version="1.0" encoding="utf-8"?>
<!-- Generator: Adobe Illustrator 14.0.0, SVG Export Plug-In . SVG Version: 6.00 Build 43363)  -->
<!DOCTYPE svg PUBLIC "-//W3C//DTD SVG 1.1//EN" "http://www.w3.org/Graphics/SVG/1.1/DTD/svg11.dtd">
<svg version="1.1" id="Layer_1" xmlns="http://www.w3.org/2000/svg" xmlns:xlink="http://www.w3.org/1999/xlink" x="0px" y="0px"
	 width="140px" height="140px" viewBox="0 0 140 140" enable-background="new 0 0 140 140" xml:space="preserve">
<g id="layer1" transform="translate(-193.633,-276.3622)" inkscape:label="Calque 1" inkscape:groupmode="layer">
	<g id="g3013" transform="translate(119,276.3622)">
		<polygon id="polygon2989" fill="#264DE4" points="192.134,29.482 183.421,127.093 144.253,137.951 105.195,127.107 96.491,29.482 
					"/>
		<polygon id="polygon2991" fill="#2965F1" points="175.961,120.878 183.407,37.464 144.313,37.464 144.313,129.652 		"/>
		<polygon id="polygon2993" fill="#EBEBEB" points="116.445,73.673 117.518,85.646 144.313,85.646 144.313,73.673 		"/>
		<polygon id="polygon2995" fill="#EBEBEB" points="144.313,49.438 144.271,49.438 114.289,49.438 115.377,61.412 144.313,61.412 		
			"/>
		<polygon id="polygon2997" fill="#EBEBEB" points="144.313,117.227 144.313,104.769 144.26,104.782 130.925,101.182 
			130.072,91.633 123.594,91.633 118.053,91.633 119.731,110.433 144.258,117.241 		"/>
		<path id="path2999" inkscape:connector-curvature="0" d="M119,2.951h14.502v6.064h-8.438v6.064h8.438v6.064H119V2.951z"/>
		<path id="path3001" inkscape:connector-curvature="0" d="M136.403,2.951h14.502v5.273h-8.438v1.055h8.438v12.129h-14.502v-5.537
			h8.438v-1.055h-8.438V2.951z"/>
		<path id="path3003" inkscape:connector-curvature="0" d="M153.805,2.951h14.502v5.273h-8.438v1.055h8.438v12.129h-14.502v-5.537
			h8.438v-1.055h-8.438V2.951z"/>
		<polygon id="polygon3005" fill="#FFFFFF" points="159.014,85.646 157.626,101.175 144.271,104.779 144.271,117.235 
			168.818,110.433 168.998,108.41 171.812,76.887 172.104,73.673 174.265,49.438 144.271,49.438 144.271,61.412 161.143,61.412 
			160.054,73.673 144.271,73.673 144.271,85.646 		"/>
	</g>
</g>
</svg>
