<?xml version="1.0" encoding="utf-8"?>
<!-- Generator: Adobe Illustrator 14.0.0, SVG Export Plug-In . SVG Version: 6.00 Build 43363)  -->
<!DOCTYPE svg PUBLIC "-//W3C//DTD SVG 1.1//EN" "http://www.w3.org/Graphics/SVG/1.1/DTD/svg11.dtd">
<svg version="1.1" id="Layer_1" xmlns="http://www.w3.org/2000/svg" xmlns:xlink="http://www.w3.org/1999/xlink" x="0px" y="0px"
	 width="140px" height="140px" viewBox="0 0 140 140" enable-background="new 0 0 140 140" xml:space="preserve">
<path d="M31.473,3.5h6.064v6.012h5.59V3.5h6.064v18.193h-6.064v-6.064H37.59v6.064h-6.117 M57.207,9.564h-5.353V3.5H68.65v6.064
	h-5.379v12.129h-6.064 M71.313,3.5h6.354l3.902,6.407L85.473,3.5h6.354v18.193h-6.064v-9.018l-4.245,6.539l-4.245-6.539v9.018
	h-5.959 M94.833,3.5h6.064v12.182h8.596v6.012h-14.66"/>
<path fill="#E44D26" d="M31.262,127.689l-8.701-97.664h95.66l-8.701,97.611L70.312,138.5"/>
<path fill="#F16529" d="M70.391,130.194V38.041h39.103l-7.462,83.32"/>
<path fill="#EBEBEB" d="M40.332,49.985h30.059v11.971H53.463l1.107,12.261h15.82v11.944H43.602 M44.129,92.173h12.023l0.844,9.571
	l13.395,3.586v12.498l-24.574-6.855"/>
<path fill="#FFFFFF" d="M100.344,49.985H70.338v11.971h28.898 M98.155,74.217H70.338v11.971h14.766l-1.397,15.557l-13.368,3.586
	v12.445l24.521-6.803"/>
</svg>
